# AST/ASF file generated using VICON BodyLanguage
# -----------------------------------------------
:version 1.10
:name VICON
:units
  mass 1.0
  length 0.45
  angle deg
:documentation
   .ast/.asf automatically generated from VICON data using
   VICON BodyBuilder and BodyLanguage model FoxedUp or BRILLIANT.MOD
:root
   order TX TY TZ RX RY RZ
   axis XYZ
   position 0 0 0  
   orientation 0 0 0 
:bonedata
  begin
     id 1 
     name lhipjoint
     direction 0.522423 -0.726805 0.445902 
     length 2.25074 
     axis 0 0 0  XYZ
  end
  begin
     id 2 
     name lfemur
     direction 0.34202 -0.939693 0  
     length 6.54609  
     axis 0 0 20  XYZ
    dof rx ry rz
    limits (-160.0 20.0)
           (-70.0 70.0)
           (-60.0 70.0)
  end
  begin
     id 3 
     name ltibia
     direction 0.34202 -0.939693 0   
     length 7.7528   
     axis 0 0 20   XYZ
    dof rx
    limits (-10.0 170.0)
  end
  begin
     id 4 
     name lfoot
     direction 0.143696 -0.394801 0.90746   
     length 1.73269   
     axis -90 7.62852e-016 20   XYZ
    dof rx rz
    limits (-45.0 90.0)
           (-70.0 20.0)
  end
  begin
     id 5 
     name ltoes
     direction 1.53633e-011 -4.21912e-011 1   
     length 0.858383   
     axis -90 7.62852e-016 20   XYZ
    dof rx
    limits (-90.0 20.0)
  end
  begin
     id 6 
     name rhipjoint
     direction -0.515943 -0.73016 0.447961   
     length 2.2404  
     axis 0 0 0  XYZ 
  end
  begin
     id 7 
     name rfemur
     direction -0.34202 -0.939693 0   
     length 6.84377   
     axis 0 0 -20   XYZ
    dof rx ry rz
    limits (-160.0 20.0)
           (-70.0 70.0)
           (-70.0 60.0)
  end
  begin
     id 8 
     name rtibia
     direction -0.34202 -0.939693 0   
     length 7.57596   
     axis 0 0 -20   XYZ
    dof rx
    limits (-10.0 170.0)
 end
 begin
     id 9 
     name rfoot
     direction -0.0999372 -0.274575 0.956358   
     length 1.78783  
     axis -90 -7.62852e-016 -20   XYZ
    dof rx rz
    limits (-45.0 90.0)
           (-20.0 70.0)
  end
  begin
     id 10 
     name rtoes
     direction -1.53535e-011 -4.21895e-011 1   
     length 0.898614   
     axis -90 -7.62852e-016 -20   XYZ
    dof rx
    limits (-90.0 20.0)
  end
  begin
     id 11 
     name lowerback
     direction -0.011775 0.996164 -0.0867116   
     length 1.91499   
     axis 0 0 0   XYZ
    dof rx ry rz
    limits (-20.0 45.0)
           (-30.0 30.0)
           (-30.0 30.0)
  end
  begin
     id 12 
     name upperback
     direction -0.00189771 0.999673 -0.0254833   
     length 1.92213   
     axis 0 0 0   XYZ
    dof rx ry rz
    limits (-20.0 45.0)
           (-30.0 30.0)
           (-30.0 30.0)
  end
  begin
     id 13 
     name thorax
     direction 0.00335995 0.999878 0.0152401   
     length 1.93138   
     axis 0 0 0   XYZ
    dof rx ry rz
    limits (-20.0 45.0)
           (-30.0 30.0)
           (-30.0 30.0)
  end
  begin
     id 14 
     name lowerneck
     direction 0.00233191 0.998509 0.0545404   
     length 1.59408   
     axis 0 0 0   XYZ
    dof rx ry rz
    limits (-20.0 45.0)
           (-30.0 30.0)
           (-30.0 30.0)
  end
  begin
     id 15 
     name upperneck
     direction 0.07881 0.9956 -0.0506934   
     length 1.59344   
     axis 0 0 0   XYZ
    dof rx ry rz
    limits (-20.0 45.0)
           (-30.0 30.0)
           (-30.0 30.0)
  end
  begin
     id 16
     name head
     direction 0.0261681 0.999378 -0.0236299  
     length 1.60935  
     axis 0 0 0   XYZ
    dof rx ry rz
    limits (-20.0 45.0)
           (-30.0 30.0)
           (-30.0 30.0)
  end
  begin
     id 17 
     name lclavicle
     direction 0.96643 0.252035 0.0499195  
     length 3.82153  
     axis 0 0 0   XYZ
    dof ry rz
    limits (-20.0 10.0)
           (0.0 20.0)
  end
  begin
     id 18 
     name lhumerus
     direction 1 -4.48967e-011 -2.01614e-018   
     length 4.87796   
     axis 180 -30 -90   XYZ
    dof rx ry rz
    limits (-60.0 90.0)
           (-90.0 90.0)
           (-90.0 90.0)
  end
  begin
     id 19
     name lradius
     direction 1 -4.48958e-011 3.1409e-027   
     length 3.23169   
     axis 180 -30 -90   XYZ
    dof rx
    limits (-10.0 170.0)
  end
  begin
     id 20
     name lwrist
     direction 1 -4.48924e-011 1.0365e-027   
     length 1.61584   
     axis -2.56395e-016 90 90   XYZ
    dof ry
    limits (-180.0 0.0)
 end
  begin
     id 21 
     name lhand
     direction 1 -4.49055e-011 2.09488e-027   
     length 0.731324   
     axis -1.32723e-015 90 90   XYZ
    dof rx rz
    limits (-90.0 90.0)
           (-45.0 45.0)
  end
  begin
     id 22 
     name lfingers
     direction 1 -4.48935e-011 4.14981e-027   
     length 0.589612   
     axis -2.6545e-015 90 90   XYZ
    dof rx
    limits (0.0 90.0)
  end
  begin
     id 23
     name lthumb
     direction 0.707107 -6.35097e-011 0.707107   
     length 0.846569   
     axis -90 45 5.05613e-014   XYZ
    dof rx rz
    limits (-45.0 45.0)
           (-45.0 45.0)
  end
  begin
     id 24 
     name rclavicle
     direction -0.979337 0.201016 0.0221522   
     length 3.73827  
     axis 0 0 0   XYZ 
    dof ry rz
    limits (-10.0 20.0)
           (-20.0 0.0)
  end
  begin
     id 25 
     name rhumerus
     direction -1 -4.48971e-011 1.65907e-027  
     length 4.9143   
     axis 180 30 90   XYZ
    dof rx ry rz
    limits (-90.0 60.0)
           (-90.0 90.0)
           (-90.0 90.0)
  end
  begin
     id 26 
     name rradius
     direction -1 -4.4894e-011 2.17871e-028   
     length 3.29093   
     axis 180 30 90   XYZ
    dof rx
    limits (-10.0 170.0)
  end
  begin
     id 27 
     name rwrist
     direction -1 -4.48971e-011 1.04038e-027   
     length 1.64546   
     axis -2.56395e-016 -90 -90   XYZ
    dof ry
    limits (-180.0 0.0)
  end
  begin
     id 28
     name rhand
     direction -1 -4.49017e-011 2.08843e-027   
     length 0.54512   
     axis -1.32723e-015 -90 -90   XYZ
    dof rx rz
    limits (-90.0 90.0)
           (-45.0 45.0)
  end
  begin
     id 29
     name rfingers
     direction -1 -4.48918e-011 4.1439e-027   
     length 0.43949   
     axis -2.6545e-015 -90 -90   XYZ
    dof rx
    limits (0.0 90.0)
  end
  begin
     id 30
     name rthumb
     direction -0.707107 -6.35065e-011 0.707107   
     length 0.631022   
     axis -90 -45 -5.05613e-014   XYZ
    dof rx rz
    limits (-45.0 45.0)
           (-45.0 45.0)
  end
:hierarchy
  begin
    root lhipjoint rhipjoint lowerback
    lhipjoint lfemur
    lfemur ltibia
    ltibia lfoot
    lfoot ltoes
    rhipjoint rfemur
    rfemur rtibia
    rtibia rfoot
    rfoot rtoes
    lowerback upperback
    upperback thorax
    thorax lowerneck lclavicle rclavicle
    lowerneck upperneck
    upperneck head
    lclavicle lhumerus
    lhumerus lradius
    lradius lwrist
    lwrist lhand lthumb
    lhand lfingers
    rclavicle rhumerus
    rhumerus rradius
    rradius rwrist
    rwrist rhand rthumb
    rhand rfingers
  end

#!OML:ASF H:\BreakDance\Project 1\Capture day 1\Session 1\Male.ASF
:FULLY-SPECIFIED
:DEGREES
2109
root 15.2253 15.3546 -7.82938 1258.2 -46.3158 -882.418
lowerback 5.98529 -0.299878 5.39145
upperback 6.16335 -0.512308 -1.83644
thorax 2.99813 -0.151263 -4.92829
lowerneck -1.81197 11.1312 8.15745
upperneck -5.36916 14.4641 -11.8221
head 0.183999 7.21212 -4.54042
rclavicle -3.33958e-014 -3.65764e-014
rhumerus -39.8121 16.7857 -95.6474
rradius 97.5106
rwrist -10.2053
rhand -11.5498 -13.3084
rfingers 7.12502
rthumb 14.4908 317.218
lclavicle -3.33958e-014 -3.65764e-014
lhumerus -33.3705 -27.9099 89.6863
lradius 99.6298
lwrist 6.72193
lhand -20.769 -33.5427
lfingers 7.12502
lthumb 5.59739 -3.63668
rfemur -31.3299 -9.52047 20.8039
rtibia 57.0849
rfoot -23.2528 17.8741
rtoes 21.9512
lfemur -54.1874 37.9362 1.83179
ltibia 118.144
lfoot 0.640973 -26.0983
ltoes -37.933
2110
root 15.1453 15.3615 -7.852 1258.82 -45.6857 -882.896
lowerback 6.47335 -0.426408 5.32039
upperback 6.37711 -0.691646 -1.87121
thorax 2.92968 -0.252798 -4.91606
lowerneck -1.44376 11.3747 8.08197
upperneck -5.79326 14.774 -12.337
head 0.0687394 7.38934 -4.699
rclavicle 5.96354e-014 4.13472e-014
rhumerus -38.5291 16.4469 -95.0458
rradius 97.9469
rwrist -11.0219
rhand -12.3201 -13.3536
rfingers 7.12502
rthumb 13.7485 317.121
lclavicle 5.96354e-014 4.13472e-014
lhumerus -31.8742 -27.5377 87.0514
lradius 99.6437
lwrist 8.52612
lhand -22.0574 -33.4304
lfingers 7.12502
lthumb 4.35333 -3.49512
rfemur -32.71 -10.1112 20.533
rtibia 59.1935
rfoot -20.3966 18.0843
rtoes 23.6353
lfemur -56.7626 37.938 -0.54444
ltibia 116.938
lfoot 0.859427 -25.379
ltoes -37.2286
2111
root 15.058 15.3681 -7.8683 1259.49 -45.0801 -883.413
lowerback 6.99539 -0.557831 5.29941
upperback 6.58477 -0.875516 -1.92814
thorax 2.83643 -0.355826 -4.95297
lowerneck -1.0803 11.6001 7.94927
upperneck -6.23245 15.0526 -12.8467
head -0.0564624 7.55414 -4.85091
rclavicle -1.70955e-013 1.43125e-014
rhumerus -37.3027 16.0369 -94.465
rradius 98.4867
rwrist -11.9185
rhand -13.1442 -13.2806
rfingers 7.12502
rthumb 12.9542 317.142
lclavicle -1.70955e-013 1.43125e-014
lhumerus -30.3666 -27.0755 84.3043
lradius 99.5535
lwrist 10.2861
lhand -23.1965 -33.2621
lfingers 7.12502
lthumb 3.25338 -3.30721
rfemur -34.3795 -10.9899 20.245
rtibia 61.6055
rfoot -17.1518 17.8249
rtoes 24.9275
lfemur -59.2733 37.628 -3.01047
ltibia 115.435
lfoot 0.82298 -24.4064
ltoes -36.3414
2112
root 14.9632 15.3738 -7.8807 1260.24 -44.4651 -884.017
lowerback 7.55532 -0.683101 5.27538
upperback 6.78087 -1.05072 -2.02763
thorax 2.71148 -0.455624 -5.03058
lowerneck -0.750985 11.8144 7.81782
upperneck -6.64016 15.3127 -13.3351
head -0.169421 7.71014 -4.99549
rclavicle -4.6118e-014 -6.67916e-014
rhumerus -36.1657 15.5608 -93.9323
rradius 99.1339
rwrist -12.8372
rhand -13.8509 -13.0685
rfingers 7.12502
rthumb 12.2729 317.312
lclavicle -4.6118e-014 -6.67916e-014
lhumerus -28.8367 -26.4795 81.4423
lradius 99.3059
lwrist 11.9105
lhand -24.0497 -33.0759
lfingers 7.12502
lthumb 2.42932 -3.10997
rfemur -36.3073 -12.0913 19.9234
rtibia 64.2408
rfoot -13.6997 16.9951
rtoes 25.7171
lfemur -61.6159 37.0894 -5.47552
ltibia 113.65
lfoot 0.48807 -23.2515
ltoes -35.2889
2113
root 14.8618 15.3775 -7.89162 1261.06 -43.8236 -884.712
lowerback 8.14927 -0.794686 5.18708
upperback 6.95514 -1.21019 -2.16088
thorax 2.54711 -0.551311 -5.10513
lowerneck -0.477969 12.0217 7.70937
upperneck -6.98691 15.5632 -13.7873
head -0.256883 7.85962 -5.12808
rclavicle 8.74653e-015 -1.90833e-014
rhumerus -35.1249 15.0358 -93.4488
rradius 99.8689
rwrist -13.724
rhand -14.3081 -12.6689
rfingers 7.12502
rthumb 11.832 317.685
lclavicle 8.74653e-015 -1.90833e-014
lhumerus -27.2918 -25.7256 78.498
lradius 98.8549
lwrist 13.3477
lhand -24.5806 -32.8615
lfingers 7.12502
lthumb 1.91661 -2.89036
rfemur -38.462 -13.3439 19.5902
rtibia 67.0133
rfoot -10.2715 15.6552
rtoes 26.1062
lfemur -63.7654 36.3986 -7.86349
ltibia 111.605
lfoot -0.0862621 -21.996
ltoes -34.4703
2114
root 14.7548 15.3786 -7.90323 1261.98 -43.1638 -885.488
lowerback 8.73678 -0.882638 4.99647
upperback 7.09947 -1.34474 -2.3181
thorax 2.35879 -0.638865 -5.14597
lowerneck -0.246244 12.2085 7.64739
upperneck -7.27662 15.7889 -14.2013
head -0.322426 7.99435 -5.25299
rclavicle -4.53229e-014 -4.29375e-014
rhumerus -34.1615 14.4417 -93.0143
rradius 100.652
rwrist -14.5474
rhand -14.4806 -12.0861
rfingers 7.12502
rthumb 11.6657 318.259
lclavicle -4.53229e-014 -4.29375e-014
lhumerus -25.7389 -24.846 75.511
lradius 98.1665
lwrist 14.5788
lhand -24.8454 -32.6008
lfingers 7.12502
lthumb 1.66092 -2.62756
rfemur -40.8134 -14.6933 19.2741
rtibia 69.8481
rfoot -7.14355 13.9748
rtoes 26.1667
lfemur -65.7403 35.6094 -10.1336
ltibia 109.324
lfoot -0.782249 -20.7249
ltoes -33.6578
2115
root 14.6436 15.3762 -7.9173 1262.98 -42.4887 -886.328
lowerback 9.28156 -0.934004 4.68144
upperback 7.22296 -1.44256 -2.48661
thorax 2.17834 -0.712149 -5.12943
lowerneck -0.0677233 12.367 7.62794
upperneck -7.51368 15.9797 -14.5724
head -0.367375 8.10817 -5.36787
rclavicle 1.82882e-014 -5.24792e-014
rhumerus -33.2553 13.7703 -92.6161
rradius 101.481
rwrist -15.3127
rhand -14.478 -11.4317
rfingers 7.12502
rthumb 11.6682 318.913
lclavicle 1.82882e-014 -5.24792e-014
lhumerus -24.1663 -23.8853 72.5207
lradius 97.2244
lwrist 15.5873
lhand -24.9489 -32.2702
lfingers 7.12502
lthumb 1.56096 -2.29615
rfemur -43.3105 -16.0896 19.003
rtibia 72.6868
rfoot -4.61234 12.1371
rtoes 25.7542
lfemur -67.5391 34.7791 -12.2525
ltibia 106.83
lfoot -1.51151 -19.4813
ltoes -32.9781
2116
root 14.5296 15.3681 -7.93485 1264.06 -41.8001 -887.227
lowerback 9.74736 -0.938706 4.22089
upperback 7.3364 -1.4953 -2.65558
thorax 2.03852 -0.766821 -5.03453
lowerneck 0.0452639 12.4975 7.62521
upperneck -7.70237 16.1354 -14.8919
head -0.394125 8.20043 -5.46575
rclavicle 1.27222e-014 -1.27222e-014
rhumerus -32.4104 13.0403 -92.2305
rradius 102.389
rwrist -16.0641
rhand -14.4542 -10.811
rfingers 7.12502
rthumb 11.6911 319.535
lclavicle 1.27222e-014 -1.27222e-014
lhumerus -22.5669 -22.8783 69.5681
lradius 96.0318
lwrist 16.3959
lhand -24.9793 -31.8456
lfingers 7.12502
lthumb 1.53154 -1.87133
rfemur -45.9172 -17.4877 18.7933
rtibia 75.4914
rfoot -2.91997 10.2348
rtoes 24.6107
lfemur -69.1846 33.9561 -14.2177
ltibia 104.155
lfoot -2.20162 -18.2968
ltoes -32.6396
2117
root 14.4142 15.3519 -7.95589 1265.19 -41.1035 -888.158
lowerback 10.1369 -0.900064 3.63337
upperback 7.44507 -1.50716 -2.81538
thorax 1.94263 -0.804563 -4.86225
lowerneck 0.0946277 12.6027 7.61814
upperneck -7.84382 16.2595 -15.161
head -0.404832 8.27305 -5.54391
rclavicle 3.4191e-014 1.59028e-015
rhumerus -31.6398 12.2893 -91.8375
rradius 103.396
rwrist -16.8317
rhand -14.4928 -10.2903
rfingers 7.12502
rthumb 11.6539 320.054
lclavicle 3.4191e-014 1.59028e-015
lhumerus -20.9481 -21.846 66.6881
lradius 94.6009
lwrist 17.0628
lhand -24.9752 -31.3724
lfingers 7.12502
lthumb 1.53548 -1.39822
rfemur -48.5912 -18.8607 18.6684
rtibia 78.2378
rfoot -2.15479 8.23559
rtoes 22.6801
lfemur -70.6862 33.1648 -16.0087
ltibia 101.344
lfoot -2.8049 -17.1909
ltoes -32.3828
2118
root 14.2976 15.3257 -7.98033 1266.31 -40.3942 -889.066
lowerback 10.4821 -0.82768 2.98274
upperback 7.54264 -1.48474 -2.96133
thorax 1.86479 -0.827226 -4.64333
lowerneck 0.122406 12.681 7.59803
upperneck -7.94783 16.351 -15.3814
head -0.410131 8.32744 -5.60502
rclavicle -3.4191e-014 1.06549e-013
rhumerus -30.9748 11.5511 -91.4336
rradius 104.499
rwrist -17.5975
rhand -14.7278 -9.9579
rfingers 7.12502
rthumb 11.4273 320.374
lclavicle -3.4191e-014 1.06549e-013
lhumerus -19.3524 -20.8091 63.9014
lradius 92.9629
lwrist 17.6427
lhand -24.9791 -30.8511
lfingers 7.12502
lthumb 1.53173 -0.876873
rfemur -51.2709 -20.187 18.66
rtibia 80.8915
rfoot -2.18513 6.10902
rtoes 20.4954
lfemur -72.0227 32.4253 -17.5768
ltibia 98.4412
lfoot -3.30473 -16.1565
ltoes -32.009
2119
root 14.1818 15.2865 -8.00705 1267.42 -39.7164 -889.901
lowerback 10.779 -0.741119 2.32988
upperback 7.60934 -1.44555 -3.09747
thorax 1.78299 -0.840638 -4.41502
lowerneck 0.137886 12.7308 7.61786
upperneck -8.01268 16.4095 -15.5805
head -0.404171 8.36291 -5.66479
rclavicle -2.54444e-014 1.06549e-013
rhumerus -30.4107 10.8119 -91.0383
rradius 105.658
rwrist -18.301
rhand -15.0242 -9.75757
rfingers 7.12502
rthumb 11.1414 320.558
lclavicle -2.54444e-014 1.06549e-013
lhumerus -17.7854 -19.7912 61.1925
lradius 91.1455
lwrist 18.1825
lhand -25.0065 -30.2528
lfingers 7.12502
lthumb 1.50525 -0.278343
rfemur -53.9996 -21.476 18.8232
rtibia 83.4269
rfoot -2.74976 3.91446
rtoes 18.9873
lfemur -73.3051 31.707 -18.9271
ltibia 95.5016
lfoot -3.7083 -15.1862
ltoes -31.482
2120
root 14.0647 15.2346 -8.03617 1268.45 -39.0296 -890.593
lowerback 11.0315 -0.646205 1.75034
upperback 7.65494 -1.39045 -3.21331
thorax 1.70411 -0.842407 -4.20941
lowerneck 0.131445 12.7708 7.68604
upperneck -8.04458 16.4572 -15.8052
head -0.379481 8.39078 -5.73599
rclavicle -2.06736e-014 4.29375e-014
rhumerus -29.9039 10.1097 -90.6453
rradius 106.814
rwrist -18.8772
rhand -15.2903 -9.62806
rfingers 7.12502
rthumb 10.8848 320.674
lclavicle -2.06736e-014 4.29375e-014
lhumerus -16.274 -18.7411 58.5935
lradius 89.1588
lwrist 18.6992
lhand -25.0134 -29.6236
lfingers 7.12502
lthumb 1.4986 0.35085
rfemur -56.7381 -22.6669 19.193
rtibia 85.7849
rfoot -3.58229 1.8758
rtoes 18.7877
lfemur -74.515 31.0532 -20.002
ltibia 92.5587
lfoot -4.02896 -14.2719
ltoes -30.6442
2121
root 13.946 15.1702 -8.0668 1269.4 -38.3413 -891.098
lowerback 11.2406 -0.560484 1.29593
upperback 7.66536 -1.33387 -3.29761
thorax 1.61064 -0.837209 -4.0423
lowerneck 0.142965 12.8093 7.78631
upperneck -8.07157 16.5034 -16.071
head -0.349469 8.41859 -5.82441
rclavicle 2.22639e-014 3.18055e-015
rhumerus -29.4261 9.46166 -90.2541
rradius 107.902
rwrist -19.2793
rhand -15.4811 -9.5076
rfingers 7.12502
rthumb 10.7007 320.785
lclavicle 2.22639e-014 3.18055e-015
lhumerus -14.8677 -17.6455 56.1458
lradius 87.0098
lwrist 19.2208
lhand -25.0044 -28.9925
lfingers 7.12502
lthumb 1.50736 0.98189
rfemur -59.4977 -23.7367 19.7999
rtibia 87.9198
rfoot -4.45681 0.315785
rtoes 19.8192
lfemur -75.6952 30.4507 -20.7798
ltibia 89.6444
lfoot -4.2248 -13.4107
ltoes -29.5485
2122
root 13.8259 15.0935 -8.09801 1270.27 -37.6673 -891.419
lowerback 11.4205 -0.491848 0.979511
upperback 7.64558 -1.28372 -3.34777
thorax 1.49937 -0.82854 -3.91717
lowerneck 0.160688 12.852 7.91719
upperneck -8.09727 16.5549 -16.3845
head -0.311876 8.44936 -5.93067
rclavicle -6.67916e-014 -6.67916e-014
rhumerus -28.9196 8.84987 -89.8664
rradius 108.862
rwrist -19.4959
rhand -15.6021 -9.34436
rfingers 7.12502
rthumb 10.584 320.942
lclavicle -6.67916e-014 -6.67916e-014
lhumerus -13.5685 -16.5197 53.8618
lradius 84.6975
lwrist 19.7685
lhand -25.0517 -28.3716
lfingers 7.12502
lthumb 1.4616 1.60313
rfemur -62.267 -24.6741 20.6228
rtibia 89.7983
rfoot -5.18443 -0.437954
rtoes 21.4772
lfemur -76.8533 29.8763 -21.2612
ltibia 86.7848
lfoot -4.27567 -12.6117
ltoes -28.3884
2123
root 13.7039 15.005 -8.12926 1271.05 -37.0145 -891.576
lowerback 11.6021 -0.436652 0.805559
upperback 7.61671 -1.23696 -3.3734
thorax 1.37602 -0.815685 -3.84684
lowerneck 0.141108 12.9015 8.08771
upperneck -8.10934 16.6146 -16.7448
head -0.254801 8.4821 -6.05187
rclavicle 7.95139e-014 2.70347e-014
rhumerus -28.3374 8.24049 -89.4865
rradius 109.667
rwrist -19.5438
rhand -15.6853 -9.12141
rfingers 7.12502
rthumb 10.5038 321.161
lclavicle 7.95139e-014 2.70347e-014
lhumerus -12.3368 -15.3824 51.7183
lradius 82.2149
lwrist 20.3015
lhand -25.1954 -27.7806
lfingers 7.12502
lthumb 1.32289 2.19507
rfemur -65.0014 -25.4729 21.6061
rtibia 91.4071
rfoot -5.64069 -0.174229
rtoes 22.9071
lfemur -77.9522 29.3271 -21.4537
ltibia 84.0138
lfoot -4.19412 -11.8995
ltoes -27.1738
